# Blender 4.5.3 LTS
# www.blender.org
mtllib lego.mtl
o Lego
v 0.223982 0.724659 -0.249570
v 0.223982 1.201710 -0.249570
v 0.223982 0.724659 0.227481
v 0.223982 1.201710 0.227481
v -0.253069 0.724659 -0.249570
v -0.253069 1.201710 -0.249570
v -0.253069 0.724659 0.227481
v -0.253069 1.201710 0.227481
v 0.085232 0.663754 -0.097379
v 0.085232 0.717963 -0.097379
v 0.085232 0.663754 0.051695
v 0.085232 0.717963 0.051695
v -0.104499 0.663754 -0.097379
v -0.104499 0.717963 -0.097379
v -0.104499 0.663754 0.051695
v -0.104499 0.717963 0.051695
v -0.029297 -0.686532 -0.269228
v -0.029297 -0.076684 -0.269228
v -0.029297 -0.686532 0.214662
v -0.029297 -0.076684 0.214662
v -0.290854 -0.686532 -0.269228
v -0.290854 -0.076684 -0.269228
v -0.290854 -0.686532 0.214662
v -0.290854 -0.076684 0.214662
v 0.024041 -0.686735 0.212705
v 0.287497 -0.686735 0.212705
v 0.024041 -0.686735 0.330488
v 0.287497 -0.686735 0.330488
v 0.024041 -0.524569 0.212705
v 0.287497 -0.524569 0.212705
v 0.024041 -0.524569 0.330488
v 0.287497 -0.524569 0.330488
v 0.499943 -0.004063 0.302996
v 0.499943 0.411852 -0.143018
v 0.499943 0.151603 0.448157
v 0.499943 0.567518 0.002142
v 0.279043 -0.004063 0.302996
v 0.279043 0.411852 -0.143018
v 0.279043 0.151603 0.448157
v 0.279043 0.567518 0.002143
v -0.295579 0.151603 -0.475335
v -0.295579 0.567518 -0.029321
v -0.295579 -0.004063 -0.330175
v -0.295579 0.411852 0.115840
v -0.516480 0.151603 -0.475335
v -0.516479 0.567518 -0.029321
v -0.516479 -0.004063 -0.330175
v -0.516479 0.411852 0.115840
v 0.125494 1.202359 -0.154815
v 0.125494 1.337880 -0.154815
v 0.125494 1.202359 0.116229
v 0.125494 1.337880 0.116229
v -0.145549 1.202359 -0.154815
v -0.145549 1.337880 -0.154815
v -0.145549 1.202359 0.116229
v -0.145549 1.337880 0.116229
v 0.284896 -0.077407 -0.271333
v 0.284896 0.662463 -0.271333
v 0.284896 -0.077407 0.253212
v 0.284896 0.662463 0.253212
v -0.293859 -0.077407 -0.271333
v -0.293859 0.662463 -0.271333
v -0.293859 -0.077407 0.253213
v -0.293859 0.662463 0.253213
v 0.285433 -0.686532 -0.269228
v 0.285433 -0.076684 -0.269228
v 0.285433 -0.686532 0.214662
v 0.285433 -0.076684 0.214662
v 0.023876 -0.686532 -0.269228
v 0.023876 -0.076684 -0.269228
v 0.023876 -0.686532 0.214662
v 0.023876 -0.076684 0.214662
v -0.290689 -0.686735 0.212705
v -0.027233 -0.686735 0.212705
v -0.290689 -0.686735 0.330488
v -0.027233 -0.686735 0.330488
v -0.290689 -0.524569 0.212705
v -0.027233 -0.524569 0.212705
v -0.290689 -0.524569 0.330488
v -0.027233 -0.524569 0.330488
vn -1.0000 -0.0000 -0.0000
vn -0.0000 -0.0000 1.0000
vn -0.0000 0.7314 -0.6820
vn -0.0000 -0.0000 -1.0000
vn -0.0000 0.7314 0.6820
vn -0.0000 -0.7314 0.6820
vn -0.0000 1.0000 -0.0000
vn -0.0000 -1.0000 -0.0000
vn -0.0000 0.6820 -0.7314
vn 1.0000 -0.0000 -0.0000
vn -0.0000 -0.6820 -0.7314
vn -0.0000 -0.7314 -0.6820
vn -0.0000 0.6820 0.7314
vn -0.0000 -0.6820 0.7314
s 0
usemtl Material.002
f 7//7 1//7 5//7
f 3//1 2//1 1//1
f 7//4 4//4 3//4
f 4//8 6//8 2//8
f 5//10 8//10 7//10
f 1//2 6//2 5//2
f 5//10 6//10 8//10
f 4//8 8//8 6//8
f 1//2 2//2 6//2
f 7//7 3//7 1//7
f 3//1 4//1 2//1
f 7//4 8//4 4//4
usemtl Material.003
f 15//4 12//4 11//4
f 12//8 14//8 10//8
f 11//1 10//1 9//1
f 15//7 9//7 13//7
f 13//10 16//10 15//10
f 9//2 14//2 13//2
f 15//7 11//7 9//7
f 13//10 14//10 16//10
f 15//4 16//4 12//4
f 12//8 16//8 14//8
f 9//2 10//2 14//2
f 11//1 12//1 10//1
usemtl Material.004
f 19//1 18//1 17//1
f 17//2 22//2 21//2
f 23//4 20//4 19//4
f 20//8 22//8 18//8
f 19//1 20//1 18//1
f 21//10 24//10 23//10
f 23//7 17//7 21//7
f 23//7 19//7 17//7
f 21//10 22//10 24//10
f 17//2 18//2 22//2
f 23//4 24//4 20//4
f 20//8 24//8 22//8
usemtl Material.005
f 28//1 30//1 26//1
f 31//4 28//4 27//4
f 27//7 26//7 25//7
f 29//8 32//8 31//8
f 31//10 25//10 29//10
f 25//2 30//2 29//2
f 27//7 28//7 26//7
f 29//8 30//8 32//8
f 31//10 27//10 25//10
f 25//2 26//2 30//2
f 28//1 32//1 30//1
f 31//4 32//4 28//4
usemtl Material.006
f 33//5 38//5 37//5
f 39//9 33//9 37//9
f 39//12 36//12 35//12
f 37//10 40//10 39//10
f 33//1 36//1 34//1
f 36//14 38//14 34//14
f 33//1 35//1 36//1
f 37//10 38//10 40//10
f 39//9 35//9 33//9
f 36//14 40//14 38//14
f 39//12 40//12 36//12
f 33//5 34//5 38//5
usemtl Material.007
f 47//3 44//3 43//3
f 41//6 46//6 45//6
f 44//11 46//11 42//11
f 45//10 48//10 47//10
f 47//13 41//13 45//13
f 41//1 44//1 42//1
f 41//1 43//1 44//1
f 45//10 46//10 48//10
f 47//13 43//13 41//13
f 47//3 48//3 44//3
f 44//11 48//11 46//11
f 41//6 42//6 46//6
usemtl Material.008
f 49//2 54//2 53//2
f 55//4 52//4 51//4
f 53//10 56//10 55//10
f 51//1 50//1 49//1
f 52//8 54//8 50//8
f 55//7 49//7 53//7
f 53//10 54//10 56//10
f 52//8 56//8 54//8
f 51//1 52//1 50//1
f 55//7 51//7 49//7
f 49//2 50//2 54//2
f 55//4 56//4 52//4
usemtl Material.009
f 63//7 57//7 61//7
f 61//10 64//10 63//10
f 63//4 60//4 59//4
f 59//1 58//1 57//1
f 57//2 62//2 61//2
f 60//8 62//8 58//8
f 59//1 60//1 58//1
f 60//8 64//8 62//8
f 63//7 59//7 57//7
f 57//2 58//2 62//2
f 61//10 62//10 64//10
f 63//4 64//4 60//4
usemtl Material.010
f 71//4 68//4 67//4
f 65//2 70//2 69//2
f 69//10 72//10 71//10
f 71//7 65//7 69//7
f 68//8 70//8 66//8
f 67//1 66//1 65//1
f 71//7 67//7 65//7
f 67//1 68//1 66//1
f 71//4 72//4 68//4
f 65//2 66//2 70//2
f 68//8 72//8 70//8
f 69//10 70//10 72//10
usemtl Material.011
f 79//10 73//10 77//10
f 77//8 80//8 79//8
f 75//7 74//7 73//7
f 79//4 76//4 75//4
f 76//1 78//1 74//1
f 79//4 80//4 76//4
f 73//2 74//2 78//2
f 77//8 78//8 80//8
f 75//7 76//7 74//7
f 76//1 80//1 78//1
f 79//10 75//10 73//10
f 73//2 78//2 77//2
l 1 10
l 5 14
l 7 16
l 3 12
